<?xml version="1.0" encoding="UTF-8"?>
<svg width="421px" height="421px" viewBox="0 0 421 421" version="1.1" xmlns="http://www.w3.org/2000/svg" xmlns:xlink="http://www.w3.org/1999/xlink">
    <title>Collaborator</title>
    <defs>
        <circle id="path-1" cx="210.5" cy="210.5" r="210.5"></circle>
    </defs>
    <g id="Collaborator" stroke="none" stroke-width="1" fill="none" fill-rule="evenodd">
        <g id="Onboarder">
            <g id="Group">
                <mask id="mask-2" fill="white">
                    <use xlink:href="#path-1"></use>
                </mask>
                <use id="Mask" fill="#FFFFFF" xlink:href="#path-1"></use>
                <g mask="url(#mask-2)" fill-rule="nonzero">
                    <g transform="translate(1.000000, -65.000000)">
                        <rect id="Rectangle" fill="#B9BBC5" x="206.24" y="103.23" width="102.78" height="102.78"></rect>
                        <circle id="Oval" fill="#041F41" cx="226.61" cy="128.7" r="5.09"></circle>
                        <circle id="Oval" fill="#041F41" cx="226.61" cy="145.67" r="5.09"></circle>
                        <circle id="Oval" fill="#041F41" cx="226.61" cy="162.65" r="5.09"></circle>
                        <circle id="Oval" fill="#041F41" cx="226.61" cy="179.62" r="5.09"></circle>
                        <circle id="Oval" fill="#041F41" cx="246.98" cy="128.7" r="5.09"></circle>
                        <circle id="Oval" fill="#041F41" cx="246.98" cy="145.67" r="5.09"></circle>
                        <circle id="Oval" fill="#041F41" cx="246.98" cy="162.65" r="5.09"></circle>
                        <circle id="Oval" fill="#041F41" cx="246.98" cy="179.62" r="5.09"></circle>
                        <circle id="Oval" fill="#041F41" cx="267.35" cy="128.7" r="5.09"></circle>
                        <circle id="Oval" fill="#041F41" cx="267.35" cy="145.67" r="5.09"></circle>
                        <circle id="Oval" fill="#041F41" cx="267.35" cy="162.65" r="5.09"></circle>
                        <circle id="Oval" fill="#041F41" cx="267.35" cy="179.62" r="5.09"></circle>
                        <circle id="Oval" fill="#041F41" cx="287.72" cy="128.7" r="5.09"></circle>
                        <circle id="Oval" fill="#041F41" cx="287.72" cy="145.67" r="5.09"></circle>
                        <circle id="Oval" fill="#041F41" cx="287.72" cy="162.65" r="5.09"></circle>
                        <circle id="Oval" fill="#041F41" cx="287.72" cy="179.62" r="5.09"></circle>
                        <rect id="Rectangle" fill="#605E63" x="0.68" y="103.23" width="102.78" height="102.78"></rect>
                        <path d="M34.89,147.34 L38.89,144.7 L38.89,144.7 L64,128 C64.5180362,127.710123 65.1070585,127.571529 65.7,127.6 C67.9314231,127.880956 69.8750227,129.257985 70.88,131.27 C72.62,134.27 72.33,137.66 70.26,138.84 L69.69,139.11 L42.72,152.49 L42.72,152.49 L39.5,154 L42.71,155.63 L55.58,162.09 L70.19,169.43 C72.19,170.61 72.52,173.98 70.78,176.98 C69.04,179.98 65.96,181.42 63.93,180.24 L50.87,171.5 L38.87,163.5 L38.87,163.5 L34.87,160.85 C32.5904825,159.345245 31.2189145,156.796389 31.2189145,154.065 C31.2189145,151.333611 32.5904825,148.784755 34.87,147.28" id="Path" fill="#06F27B"></path>
                        <rect id="Rectangle" fill="#06F27B" x="103.46" y="103.23" width="102.78" height="102.78"></rect>
                        <path d="M157.35,128.92 C157.553874,128.368656 158.072403,127.996581 158.66,127.98 L163.86,127.98 C164.310975,127.954275 164.74379,128.16094 165.007299,128.527824 C165.270807,128.894709 165.328413,129.370861 165.16,129.79 L151.07,177.6 C150.858793,178.141383 150.350299,178.509063 149.77,178.54 L144.5,178.54 C144.053432,178.558908 143.627228,178.352241 143.365533,177.989893 C143.103837,177.627545 143.041649,177.157978 143.2,176.74 L157.35,128.92 Z" id="Path" fill="#FFFFFF"></path>
                        <rect id="Rectangle" fill="#041F41" x="308.69" y="103.23" width="102.78" height="102.78"></rect>
                        <rect id="Rectangle" fill="#B9BBC5" x="311.82" y="344.36" width="102.78" height="102.78"></rect>
                        <path d="M346,388.47 L350,385.83 L350,385.83 L375.05,369.16 C375.571153,368.868798 376.163753,368.730178 376.76,368.76 C378.990756,369.04267 380.933627,370.419182 381.94,372.43 C383.67,375.43 383.38,378.82 381.32,380 L380.74,380.27 L353.82,393.62 L353.82,393.62 L350.59,395.17 L353.8,396.8 L366.67,403.26 L381.28,410.6 C383.33,411.78 383.61,415.15 381.87,418.15 C380.13,421.15 377.05,422.59 375.02,421.41 L362,412.67 L350,404.67 L350,404.67 L346,402 C343.711469,400.501575 342.332508,397.950444 342.332508,395.215 C342.332508,392.479556 343.711469,389.928425 346,388.43" id="Path" fill="#041F41"></path>
                        <rect id="Rectangle" fill="#041F41" x="106.69" y="344.36" width="102.78" height="102.78"></rect>
                        <path d="M158,364.06 C155.61,364.06 153.72,365.4 153.72,367.06 L155.2,381.76 C155.36,382.76 156.58,383.51 158.05,383.51 L158.05,383.51 C159.51,383.51 160.73,382.74 160.89,381.75 L162.32,367.05 C162.32,365.42 160.41,364.05 158.03,364.05" id="Path" fill="#06F27B"></path>
                        <path d="M168.62,389.63 C169.36,390.9 170.62,391.57 171.57,391.22 L185,385.11 C186.42,384.3 186.62,381.96 185.41,379.89 C184.2,377.82 182.09,376.82 180.68,377.65 L168.68,386.28 C167.9,386.92 167.86,388.35 168.59,389.64" id="Path" fill="#06F27B"></path>
                        <path d="M158,408 C159.47,408 160.7,408.76 160.86,409.76 L162.34,424.45 C162.34,426.09 160.43,427.45 158.06,427.45 C155.69,427.45 153.77,426.11 153.77,424.45 L155.21,409.76 C155.37,408.76 156.59,407.99 158.07,407.99" id="Path" fill="#06F27B"></path>
                        <path d="M168.61,401.91 C169.105091,400.758719 170.325,400.097074 171.56,400.31 L185,406.37 C186.42,407.19 186.63,409.51 185.42,411.6 C184.21,413.69 182.11,414.66 180.7,413.85 L168.7,405.28 C167.93,404.64 167.88,403.14 168.61,401.92" id="Path" fill="#06F27B"></path>
                        <path d="M155.52,390.93 L152.74,389.11 L152.74,389.11 L135.46,377.61 C135.100278,377.408956 134.691697,377.312005 134.28,377.33 C132.742104,377.524073 131.402694,378.473291 130.71,379.86 C129.51,381.95 129.71,384.27 131.14,385.09 L131.53,385.27 L150.11,394.48 L150.11,394.48 L152.34,395.55 L150.12,396.68 L131.12,406.2 C129.7,407.02 129.51,409.34 130.71,411.42 C131.91,413.5 134.04,414.48 135.44,413.66 L152.7,402.1 L152.7,402.1 L155.48,400.27 C157.046837,399.228257 157.988409,397.471544 157.988409,395.59 C157.988409,393.708456 157.046837,391.951743 155.48,390.91" id="Path" fill="#06F27B"></path>
                        <rect id="Rectangle" fill="#605E63" x="209.47" y="344.36" width="102.78" height="102.78"></rect>
                        <path d="M244.78,404.88 C241.21,404.88 238.06,402.36 238.06,396.62 C238.06,390.39 240.65,385.7 243.06,382.2 C243.48,381.64 244.06,381.71 244.67,382.13 L246.91,383.67 C247.47,384.02 247.4,384.67 246.91,385.35 C245.09,387.87 243.48,391.02 243.48,393.89 C243.472704,394.079232 243.496348,394.268386 243.55,394.45 C244.279752,393.980132 245.132168,393.736585 246,393.75 C249.15,393.75 250.76,396.27 250.76,399.21 C250.745214,400.763575 250.100199,402.24455 248.972772,403.313532 C247.845345,404.382513 246.332163,404.947856 244.78,404.88 Z" id="Path" fill="#06F27B"></path>
                        <path d="M275.07,381.57 C278.64,381.57 281.79,384.09 281.79,389.83 C281.79,396.06 279.2,400.75 276.79,404.25 C276.37,404.81 275.79,404.74 275.18,404.32 L272.94,402.78 C272.38,402.43 272.52,401.78 272.94,401.1 C274.69,398.51 276.37,395.43 276.37,392.56 C276.377296,392.370768 276.353652,392.181614 276.3,392 C275.570248,392.469868 274.717832,392.713415 273.85,392.7 C270.7,392.7 269.09,390.18 269.09,387.24 C269.104786,385.686425 269.749801,384.20545 270.877228,383.136468 C272.004655,382.067487 273.517837,381.502144 275.07,381.57 L275.07,381.57 Z" id="Path" fill="#06F27B"></path>
                        <rect id="Rectangle" fill="#B9BBC5" x="3.91" y="344.36" width="102.78" height="102.78"></rect>
                        <path d="M34.91,401.34 C34.91,399.13 32.7,398.44 31.52,398.19 C31.0982758,398.098378 30.7931174,397.731363 30.78,397.3 L30.78,394.45 C30.7972371,394.052415 31.0485796,393.702892 31.42,393.56 C31.42,393.56 34.91,392.43 34.91,390.41 L34.91,385.54 C34.91,373.77 42.15,372.49 47.22,372.19 C47.4671343,372.152584 47.7184231,372.223268 47.9098116,372.384034 C48.1012,372.5448 48.2141974,372.780117 48.22,373.03 L48.46,377.21 C48.4351577,377.628816 48.1700083,377.995346 47.78,378.15 C44.33,379.04 42.36,380.71 42.36,385.54 L42.36,389.43 C42.36,393.32 38.17,395.73 38.17,395.73 L38.17,395.92 C39.45,396.47 42.36,398.29 42.36,401.83 L42.36,406 C42.36,410.82 44.36,412.5 47.78,413.39 C48.170052,413.539013 48.4362862,413.903127 48.46,414.32 L48.22,418.51 C48.1724964,419.015045 47.7251534,419.38634 47.22,419.34 C42.15,419 34.91,417.74 34.91,406 L34.91,401.34 Z" id="Path" fill="#041F41"></path>
                        <path d="M75.68,406 C75.68,417.77 68.45,419 63.37,419.34 C62.8648466,419.38634 62.4175036,419.015045 62.37,418.51 L62.12,414.32 C62.1478838,413.901571 62.4176286,413.538002 62.81,413.39 C66.26,412.5 68.23,410.82 68.23,406 L68.23,401.86 C68.23,398.32 71.13,396.5 72.41,395.95 L72.41,395.76 C72.41,395.76 68.23,393.35 68.23,389.46 L68.23,385.57 C68.23,380.74 66.23,379.07 62.81,378.18 C62.4176462,378.026371 62.1489799,377.660361 62.12,377.24 L62.37,373.06 C62.3758026,372.810117 62.4888,372.5748 62.6801884,372.414034 C62.8715769,372.253268 63.1228657,372.182584 63.37,372.22 C68.45,372.52 75.68,373.8 75.68,385.57 L75.68,390.44 C75.68,392.44 79.18,393.59 79.18,393.59 C79.5435557,393.742921 79.7907519,394.086678 79.82,394.48 L79.82,397.33 C79.7875323,397.75378 79.4907371,398.110736 79.08,398.22 C77.9,398.47 75.68,399.16 75.68,401.37 L75.68,406 Z" id="Path" fill="#041F41"></path>
                        <rect id="Rectangle" fill="#B9BBC5" x="309.82" y="0.77" width="102.78" height="102.78"></rect>
                        <rect id="Rectangle" fill="#041F41" x="104.69" y="0.77" width="102.78" height="102.78"></rect>
                        <path d="M156,64.42 C157.47,64.42 158.7,65.18 158.86,66.17 L160.34,80.87 C160.34,82.51 158.43,83.87 156.06,83.87 C153.69,83.87 151.77,82.54 151.77,80.87 L153.21,66.17 C153.37,65.17 154.59,64.41 156.07,64.41" id="Path" fill="#06F27B"></path>
                        <path d="M166.61,58.32 C167.104526,57.1673756 168.323078,56.5023353 169.56,56.71 L183,62.78 C184.42,63.59 184.63,65.92 183.42,68 C182.21,70.08 180.11,71.07 178.7,70.25 L166.7,61.69 C165.93,61.05 165.88,59.55 166.61,58.33" id="Path" fill="#06F27B"></path>
                        <path d="M153.52,47.34 L150.74,45.52 L150.74,45.52 L133.46,34 C133.098624,33.8032383 132.691251,33.7065735 132.28,33.72 C130.740693,33.9178585 129.401564,34.8706279 128.71,36.26 C127.51,38.35 127.71,40.67 129.14,41.48 L129.53,41.67 L148.11,50.88 L148.11,50.88 L150.34,52 L148.12,53.12 L129.12,62.65 C127.7,63.46 127.51,65.79 128.71,67.86 C129.91,69.93 132.04,70.92 133.44,70.11 L150.74,58.51 L150.74,58.51 L153.52,56.68 C156.10374,54.9727959 156.81543,51.4949107 155.11,48.91 C154.692953,48.2779498 154.15205,47.7370474 153.52,47.32" id="Path" fill="#06F27B"></path>
                        <rect id="Rectangle" fill="#605E63" x="207.47" y="0.77" width="102.78" height="102.78"></rect>
                        <rect id="Rectangle" fill="#B9BBC5" x="1.91" y="0.77" width="102.78" height="102.78"></rect>
                        <path d="M32.91,57.75 C32.91,55.53 30.7,54.84 29.52,54.6 C29.1092629,54.4907363 28.8124677,54.1337798 28.78,53.71 L28.78,50.85 C28.8011045,50.4561152 29.0517796,50.1114369 29.42,49.97 C29.42,49.97 32.91,48.84 32.91,46.82 L32.91,41.94 C32.91,30.17 40.15,28.94 45.22,28.6 C45.466023,28.559349 45.7175777,28.6274836 45.9094546,28.7867414 C46.1013315,28.9459993 46.2146373,29.1806989 46.22,29.43 L46.46,33.62 C46.432762,34.0379575 46.168443,34.4033397 45.78,34.56 C42.33,35.44 40.36,37.12 40.36,41.94 L40.36,45.83 C40.36,49.72 36.17,52.13 36.17,52.13 L36.17,52.33 C38.6129936,53.2974421 40.2557084,55.6144933 40.36,58.24 L40.36,62.38 C40.36,67.2 42.36,68.88 45.78,69.76 C46.1700083,69.9146537 46.4351577,70.2811837 46.46,70.7 L46.22,74.88 C46.1724015,75.3863185 45.7269349,75.7605105 45.22,75.72 C40.15,75.42 32.91,74.14 32.91,62.38 L32.91,57.75 Z" id="Path" fill="#041F41"></path>
                        <path d="M73.68,62.38 C73.68,74.14 66.45,75.38 61.37,75.72 C60.8630651,75.7605105 60.4175985,75.3863185 60.37,74.88 L60.14,70.7 C60.1689799,70.2796386 60.4376462,69.9136295 60.83,69.76 C64.28,68.88 66.25,67.2 66.25,62.38 L66.25,58.24 C66.350054,55.6160657 67.989264,53.2984266 70.43,52.33 L70.43,52.13 C70.43,52.13 66.25,49.72 66.25,45.83 L66.25,41.94 C66.25,37.12 64.25,35.44 60.83,34.56 C60.4391831,34.4043771 60.1713423,34.0394925 60.14,33.62 L60.39,29.43 C60.3953627,29.1806989 60.5086685,28.9459993 60.7005454,28.7867414 C60.8924223,28.6274836 61.143977,28.559349 61.39,28.6 C66.47,28.89 73.7,30.17 73.7,41.94 L73.7,46.82 C73.7,48.82 77.2,49.97 77.2,49.97 C77.5682204,50.1114369 77.8188955,50.4561152 77.84,50.85 L77.84,53.71 C77.8075323,54.1337798 77.5107371,54.4907363 77.1,54.6 C75.92,54.84 73.7,55.53 73.7,57.75 L73.68,62.38 Z" id="Path" fill="#041F41"></path>
                        <path d="M339.69,160.21 C339.69,158 337.48,157.31 336.3,157.06 C335.878276,156.968378 335.573117,156.601363 335.56,156.17 L335.56,153.32 C335.577237,152.922415 335.82858,152.572892 336.2,152.43 C336.2,152.43 339.69,151.3 339.69,149.28 L339.69,144.41 C339.69,132.64 346.93,131.41 352,131.06 C352.247134,131.022584 352.498423,131.093268 352.689812,131.254034 C352.8812,131.4148 352.994197,131.650117 353,131.9 L353.25,136.08 C353.22102,136.500361 352.952354,136.866371 352.56,137.02 C349.11,137.91 347.14,139.58 347.14,144.41 L347.14,148.3 C347.14,152.19 342.95,154.6 342.95,154.6 L342.95,154.8 C344.23,155.34 347.14,157.16 347.14,160.7 L347.14,164.84 C347.14,169.67 349.14,171.34 352.56,172.23 C352.952371,172.378002 353.222116,172.741571 353.25,173.16 L353,177.35 C352.952496,177.855045 352.505153,178.22634 352,178.18 C346.93,177.89 339.69,176.61 339.69,164.84 L339.69,160.21 Z" id="Path" fill="#06F27B"></path>
                        <path d="M380.46,164.84 C380.46,176.61 373.23,177.84 368.15,178.18 C367.644847,178.22634 367.197504,177.855045 367.15,177.35 L366.9,173.16 C366.927884,172.741571 367.197629,172.378002 367.59,172.23 C371.04,171.34 373.01,169.67 373.01,164.84 L373.01,160.7 C373.113937,158.079752 374.752486,155.766968 377.19,154.8 L377.19,154.6 C377.19,154.6 373,152.19 373,148.3 L373,144.41 C373,139.58 371,137.91 367.58,137.02 C367.187646,136.866371 366.91898,136.500361 366.89,136.08 L367.14,131.9 C367.145803,131.650117 367.2588,131.4148 367.450188,131.254034 C367.641577,131.093268 367.892866,131.022584 368.14,131.06 C373.22,131.36 380.45,132.64 380.45,144.41 L380.45,149.28 C380.45,151.28 383.95,152.43 383.95,152.43 C384.313556,152.582921 384.560752,152.926678 384.59,153.32 L384.59,156.17 C384.557532,156.59378 384.260737,156.950736 383.85,157.06 C382.67,157.31 380.45,158 380.45,160.21 L380.46,164.84 Z" id="Path" fill="#06F27B"></path>
                        <rect id="Rectangle" fill="#B9BBC5" x="209.24" y="446.83" width="102.78" height="102.78"></rect>
                        <circle id="Oval" fill="#041F41" cx="229.61" cy="472.29" r="5.09"></circle>
                        <circle id="Oval" fill="#041F41" cx="249.98" cy="472.29" r="5.09"></circle>
                        <circle id="Oval" fill="#041F41" cx="270.35" cy="472.29" r="5.09"></circle>
                        <circle id="Oval" fill="#041F41" cx="290.72" cy="472.29" r="5.09"></circle>
                        <rect id="Rectangle" fill="#605E63" x="3.68" y="446.83" width="102.78" height="102.78"></rect>
                        <path d="M37.89,490.93 L41.89,488.3 L41.89,488.3 L66.89,471.62 C67.411504,471.339155 67.9979819,471.20116 68.59,471.22 C70.8228351,471.504743 72.7661527,472.885323 73.77,474.9 C75.51,477.9 75.22,481.29 73.15,482.47 L72.58,482.73 L45.72,496.08 L45.72,496.08 L42.5,497.63 L45.71,499.26 L58.58,505.73 L73.19,513.07 C75.19,514.24 75.52,517.61 73.78,520.62 C72.04,523.63 68.96,525.05 66.93,523.88 L53.87,515.14 L41.87,507.14 L41.87,507.14 L37.87,504.48 C34.1238148,502.007804 33.0897906,496.967496 35.56,493.22 C36.1699843,492.305079 36.9550795,491.519984 37.87,490.91" id="Path" fill="#06F27B"></path>
                        <rect id="Rectangle" fill="#06F27B" x="106.46" y="446.83" width="102.78" height="102.78"></rect>
                        <path d="M160.35,472.52 C160.551556,471.966893 161.071475,471.593821 161.66,471.58 L166.86,471.58 C167.310228,471.550295 167.744055,471.754381 168.008232,472.120165 C168.27241,472.48595 168.329751,472.961942 168.16,473.38 L154.07,521.2 C153.854698,521.738202 153.348561,522.104178 152.77,522.14 L147.5,522.14 C147.052677,522.15517 146.627314,521.946002 146.366214,521.58247 C146.105114,521.218939 146.042756,520.749049 146.2,520.33 L160.35,472.52 Z" id="Path" fill="#FFFFFF"></path>
                        <rect id="Rectangle" fill="#041F41" x="311.69" y="446.83" width="102.78" height="102.78"></rect>
                        <path d="M342.69,503.8 C342.69,501.59 340.48,500.9 339.3,500.65 C338.881777,500.55931 338.577596,500.197581 338.56,499.77 L338.56,496.91 C338.581105,496.516115 338.83178,496.171437 339.2,496.03 C339.2,496.03 342.69,494.89 342.69,492.87 L342.69,488 C342.69,476.23 349.93,474.95 355,474.66 C355.246023,474.619349 355.497578,474.687484 355.689455,474.846741 C355.881332,475.005999 355.994637,475.240699 356,475.49 L356.25,479.68 C356.217308,480.096644 355.94927,480.457914 355.56,480.61 C352.11,481.5 350.14,483.17 350.14,488 L350.14,491.89 C350.14,495.78 345.95,498.19 345.95,498.19 L345.95,498.39 C348.392994,499.357442 350.035708,501.674493 350.14,504.3 L350.14,508.43 C350.14,513.26 352.14,514.93 355.56,515.82 C355.952354,515.973629 356.22102,516.339639 356.25,516.76 L356,520.94 C355.952401,521.446319 355.506935,521.82051 355,521.78 C349.93,521.48 342.69,520.2 342.69,508.43 L342.69,503.8 Z" id="Path" fill="#06F27B"></path>
                        <path d="M383.46,508.43 C383.46,520.2 376.23,521.48 371.15,521.78 C370.643065,521.82051 370.197599,521.446319 370.15,520.94 L369.9,516.76 C369.92898,516.339639 370.197646,515.973629 370.59,515.82 C374.04,514.93 376.01,513.26 376.01,508.43 L376.01,504.3 C376.110054,501.676066 377.749264,499.358427 380.19,498.39 L380.19,498.19 C380.19,498.19 376.01,495.78 376.01,491.89 L376.01,488 C376.01,483.17 374.01,481.5 370.59,480.61 C370.20073,480.457914 369.932692,480.096644 369.9,479.68 L370.15,475.49 C370.155363,475.240699 370.268668,475.005999 370.460545,474.846741 C370.652422,474.687484 370.903977,474.619349 371.15,474.66 C376.23,474.95 383.46,476.23 383.46,488 L383.46,492.87 C383.46,494.87 386.96,496.03 386.96,496.03 C387.32822,496.171437 387.578895,496.516115 387.6,496.91 L387.6,499.77 C387.563486,500.189992 387.267501,500.541975 386.86,500.65 C385.68,500.9 383.46,501.59 383.46,503.8 L383.46,508.43 Z" id="Path" fill="#06F27B"></path>
                    </g>
                </g>
            </g>
            <g id="Group" transform="translate(362.300000, 166.910000)"></g>
            <path d="M210.5,15.9996128 C303.015575,16.0543334 382.696561,81.2525619 401.063336,171.926682 C419.43011,262.600803 371.401858,353.667567 286.2,389.72 C187.219527,431.527956 73.0879556,385.180473 31.28,286.2 C-10.5279556,187.219527 35.8195271,73.0879556 134.8,31.28 C158.748173,21.1450438 184.495585,15.9479442 210.5,15.9996128 M210.5,0 C94.24,0 0,94.24 0,210.5 C0,326.76 94.24,421 210.5,421 C326.76,421 421,326.76 421,210.5 C421,94.24 326.76,0 210.5,0 Z" id="Shape" fill="#041F41" fill-rule="nonzero"></path>
            <g id="Text" transform="translate(38.372000, 187.470000)" fill="#041F41" fill-rule="nonzero">
                <path d="M23.104,46.08 C28.8,46.08 34.304,44.096 38.656,39.872 C39.104,39.424 39.232,38.592 38.72,38.144 L35.776,35.264 C35.392,34.944 34.816,34.88 34.24,35.328 C31.168,37.696 27.904,39.552 23.232,39.552 C14.08,39.552 7.104,31.936 7.104,22.976 C7.104,14.016 14.016,6.336 23.168,6.336 C27.136,6.336 31.232,8 34.24,10.624 C34.816,11.2 35.392,11.2 35.84,10.624 L38.656,7.744 C39.168,7.232 39.168,6.464 38.592,5.952 C34.24,2.176 29.568,8.81072992e-13 23.104,8.81072992e-13 C10.304,8.81072992e-13 -1.93267624e-12,10.304 -1.93267624e-12,23.104 C-1.93267624e-12,35.904 10.304,46.08 23.104,46.08 Z" id="C"></path>
                <path d="M58.686,46.144 C66.942,46.144 73.726,39.04 73.726,30.592 C73.726,22.272 66.942,15.232 58.686,15.232 C50.366,15.232 43.582,22.272 43.582,30.592 C43.582,39.04 50.366,46.144 58.686,46.144 Z M58.686,40.064 C53.694,40.064 49.854,36.032 49.854,30.592 C49.854,25.28 53.694,21.312 58.686,21.312 C63.614,21.312 67.454,25.28 67.454,30.592 C67.454,36.032 63.614,40.064 58.686,40.064 Z M86.014,45.44 C86.718,45.44 87.422,44.8 87.422,44.032 L87.422,2.048 C87.422,1.344 86.718,0.64 86.014,0.64 L82.43,0.64 C81.662,0.64 81.022,1.344 81.022,2.048 L81.022,44.032 C81.022,44.8 81.662,45.44 82.43,45.44 L86.014,45.44 Z M101.758,45.44 C102.462,45.44 103.166,44.8 103.166,44.032 L103.166,2.048 C103.166,1.344 102.462,0.64 101.758,0.64 L98.174,0.64 C97.406,0.64 96.766,1.344 96.766,2.048 L96.766,44.032 C96.766,44.8 97.406,45.44 98.174,45.44 L101.758,45.44 Z M119.614,46.144 C124.414,46.144 127.358,43.776 128.894,42.24 C129.278,44.288 130.494,45.696 132.798,45.696 C133.63,45.696 134.142,45.12 134.142,44.416 L134.142,28.288 C134.142,20.928 131.518,15.232 122.046,15.232 C116.606,15.232 114.11,16.704 113.598,16.896 C112.894,17.152 112.446,17.6 112.638,18.624 L113.214,21.056 C113.406,21.888 113.982,22.464 114.878,22.272 C116.414,21.824 118.526,20.864 121.918,20.864 C125.63,20.864 127.998,22.976 127.87,27.648 C127.87,27.648 124.99,26.752 121.918,26.752 C114.302,26.752 110.078,30.848 110.078,36.288 C110.078,42.432 114.046,46.144 119.614,46.144 Z M120.958,40.896 C117.886,40.896 116.35,38.848 116.35,36.224 C116.35,33.152 118.974,31.36 122.43,31.36 C125.118,31.36 127.422,32.128 127.806,32.384 L127.806,37.312 C126.91,38.784 123.902,40.896 120.958,40.896 Z M157.502,46.144 C165.246,46.144 171.262,39.104 171.262,30.656 C171.262,22.016 164.926,15.232 156.734,15.232 C152.958,15.232 149.95,16.576 149.31,16.768 L149.31,2.048 C149.31,1.344 148.606,0.64 147.902,0.64 L144.254,0.64 C143.486,0.64 142.846,1.344 142.846,2.048 L142.846,44.416 C142.846,45.12 143.358,45.696 144.19,45.696 C146.43,45.696 147.71,44.288 148.03,42.24 C149.95,44.096 153.214,46.144 157.502,46.144 Z M156.542,40.064 C152.062,40.064 149.63,36.608 149.246,35.776 L149.246,22.912 L149.270167,22.8991701 C149.558377,22.7480111 152.392105,21.312 156.03,21.312 C160.894,21.312 164.862,25.6 164.862,30.656 C164.862,35.648 161.342,40.064 156.542,40.064 Z M191.678,46.144 C199.934,46.144 206.718,39.04 206.718,30.592 C206.718,22.272 199.934,15.232 191.678,15.232 C183.358,15.232 176.574,22.272 176.574,30.592 C176.574,39.04 183.358,46.144 191.678,46.144 Z M191.678,40.064 C186.686,40.064 182.846,36.032 182.846,30.592 C182.846,25.28 186.686,21.312 191.678,21.312 C196.606,21.312 200.446,25.28 200.446,30.592 C200.446,36.032 196.606,40.064 191.678,40.064 Z" id="ollabo"></path>
                <path d="M220.218,44.032 L220.218,25.28 C220.474,24.768 222.842,21.312 227.194,21.312 C228.09,21.312 229.434,21.632 229.882,21.888 C230.522,22.208 231.29,22.016 231.674,21.184 L233.21,17.984 C234.17,16 230.65,15.232 227.834,15.232 C222.906,15.232 219.962,18.176 219.066,19.328 C218.746,17.216 217.466,15.616 215.162,15.616 C214.33,15.616 213.818,16.192 213.818,16.896 L213.818,44.032 C213.818,44.8 214.458,45.44 215.226,45.44 L218.17,45.44 C219.386,45.44 220.218,45.312 220.218,44.032 Z" id="r"></path>
                <path d="M245.564,46.144 C250.364,46.144 253.308,43.776 254.844,42.24 C255.228,44.288 256.444,45.696 258.748,45.696 C259.58,45.696 260.092,45.12 260.092,44.416 L260.092,28.288 C260.092,20.928 257.468,15.232 247.996,15.232 C242.556,15.232 240.06,16.704 239.548,16.896 C238.844,17.152 238.396,17.6 238.588,18.624 L239.164,21.056 C239.356,21.888 239.932,22.464 240.828,22.272 C242.364,21.824 244.476,20.864 247.868,20.864 C251.58,20.864 253.948,22.976 253.82,27.648 C253.82,27.648 250.94,26.752 247.868,26.752 C240.252,26.752 236.028,30.848 236.028,36.288 C236.028,42.432 239.996,46.144 245.564,46.144 Z M246.908,40.896 C243.836,40.896 242.3,38.848 242.3,36.224 C242.3,33.152 244.924,31.36 248.38,31.36 C251.068,31.36 253.372,32.128 253.756,32.384 L253.756,37.312 C252.86,38.784 249.852,40.896 246.908,40.896 Z M280.06,46.144 C282.428,46.144 285.244,45.12 286.46,44.352 C287.164,43.904 287.484,43.392 287.164,42.624 L286.012,39.616 C285.756,38.976 285.18,38.464 284.284,38.976 C283.196,39.616 281.66,40.064 280.7,40.064 C278.78,40.064 277.18,39.552 277.18,37.056 L277.18,21.312 L284.988,21.312 C285.756,21.312 286.396,20.608 286.396,19.904 L286.396,17.28 C286.396,16.448 285.756,15.872 284.988,15.872 L277.18,15.872 L277.18,7.616 C277.18,6.848 276.604,6.208 275.836,6.208 L272.188,6.208 C271.42,6.208 270.78,6.848 270.78,7.616 L270.78,15.872 L267.388,15.872 C266.556,15.872 265.98,16.448 265.98,17.28 L265.98,19.904 C265.98,20.608 266.556,21.312 267.388,21.312 L270.78,21.312 L270.78,37.312 C270.78,42.56 273.66,46.144 280.06,46.144 Z M306.364,46.144 C314.62,46.144 321.404,39.04 321.404,30.592 C321.404,22.272 314.62,15.232 306.364,15.232 C298.044,15.232 291.26,22.272 291.26,30.592 C291.26,39.04 298.044,46.144 306.364,46.144 Z M306.364,40.064 C301.372,40.064 297.532,36.032 297.532,30.592 C297.532,25.28 301.372,21.312 306.364,21.312 C311.292,21.312 315.132,25.28 315.132,30.592 C315.132,36.032 311.292,40.064 306.364,40.064 Z" id="ato"></path>
                <path d="M334.908,44.032 L334.908,25.28 C335.164,24.768 337.532,21.312 341.884,21.312 C342.78,21.312 344.124,21.632 344.572,21.888 C345.212,22.208 345.98,22.016 346.364,21.184 L347.9,17.984 C348.86,16 345.34,15.232 342.524,15.232 C337.596,15.232 334.652,18.176 333.756,19.328 C333.436,17.216 332.156,15.616 329.852,15.616 C329.02,15.616 328.508,16.192 328.508,16.896 L328.508,44.032 C328.508,44.8 329.148,45.44 329.916,45.44 L332.86,45.44 C334.076,45.44 334.908,45.312 334.908,44.032 Z" id="r"></path>
            </g>
        </g>
    </g>
</svg>