<?xml version="1.0" encoding="UTF-8"?>
<svg width="421px" height="421px" viewBox="0 0 421 421" version="1.1" xmlns="http://www.w3.org/2000/svg" xmlns:xlink="http://www.w3.org/1999/xlink">
    <title>Energizer</title>
    <g id="Energizer" stroke="none" stroke-width="1" fill="none" fill-rule="evenodd">
        <g id="Energizer-copy">
            <g id="Group" transform="translate(66.000000, 43.000000)" fill="#041F41" fill-rule="nonzero">
                <path d="M118.22,1.73 C118.524881,0.878267547 119.316091,0.296728051 120.22,0.26 L125.52,0.26 C126.229209,0.196098553 126.918906,0.514099765 127.330844,1.09493312 C127.742783,1.67576648 127.814827,2.43181946 127.52,3.08 L105.52,77.73 C105.191532,78.563868 104.4139,79.1354276 103.52,79.2004191 L98.11,79.2004191 C97.4179181,79.2138408 96.7638814,78.8841127 96.3634329,78.3194802 C95.9629843,77.7548478 95.8680813,77.0285709 96.11,76.38 L118.22,1.73 Z" id="Path"></path>
                <path d="M157.69,1.73 C157.992561,0.876542025 158.785137,0.293999178 159.69,0.26 L165,0.26 C165.709209,0.196098553 166.398906,0.514099765 166.810844,1.09493312 C167.222783,1.67576648 167.294827,2.43181946 167,3.08 L145,77.73 C144.669548,78.5623384 143.893032,79.1330774 143,79.2004191 L137.59,79.2004191 C136.897918,79.2138408 136.243881,78.8841127 135.843433,78.3194802 C135.442984,77.7548478 135.348081,77.0285709 135.59,76.38 L157.69,1.73 Z" id="Path"></path>
                <rect id="Rectangle" x="58.96" y="66.63" width="12.33" height="12.33" rx="6.16"></rect>
                <path d="M3.6,33.5 L7,31.31 L7,31.31 L27.79,17.44 C28.2211057,17.202531 28.7080427,17.0851136 29.2,17.1 C31.0566194,17.3385708 32.6725917,18.4858736 33.51,20.16 C34.96,22.67 34.71,25.48 33,26.46 L32.52,26.68 L10.12,37.79 L10.12,37.79 L7.42,39.14 L10.1,40.49 L33,51.91 C34.7,52.91 34.94,55.7 33.49,58.2 C32.04,60.7 29.49,61.89 27.78,60.91 L6.94,47 L6.94,47 L3.6,44.8 C1.69730191,43.5501186 0.551482184,41.4265025 0.551482184,39.15 C0.551482184,36.8734975 1.69730191,34.7498814 3.6,33.5 Z" id="Path"></path>
                <path d="M230.71,33.5 L227.37,31.31 L227.37,31.31 L206.53,17.44 C206.095772,17.2012464 205.605273,17.0838031 205.11,17.1 C203.255076,17.3365847 201.641302,18.4849919 200.81,20.16 C199.36,22.67 199.61,25.48 201.31,26.46 L201.79,26.68 L224.2,37.79 L224.2,37.79 L226.89,39.14 L224.2,40.5 L201.35,51.91 C199.65,52.91 199.41,55.7 200.86,58.2 C202.31,60.7 204.86,61.89 206.56,60.91 L227.37,47 L227.37,47 L230.71,44.8 C232.612698,43.5501186 233.758518,41.4265025 233.758518,39.15 C233.758518,36.8734975 232.612698,34.7498814 230.71,33.5 L230.71,33.5 Z" id="Path"></path>
                <path d="M264.93,33.5 L268.27,31.31 L268.27,31.31 L289.1,17.43 C289.534228,17.1912464 290.024727,17.0738031 290.52,17.09 C292.374924,17.3265847 293.988698,18.4749919 294.82,20.15 C296.27,22.66 296.02,25.47 294.32,26.45 L293.84,26.67 L271.44,37.79 L271.44,37.79 L268.75,39.14 L271.43,40.49 L294.28,51.9 C295.98,52.9 296.22,55.69 294.77,58.19 C293.32,60.69 290.77,61.88 289.07,60.9 L268.27,47 L268.27,47 L264.93,44.8 C263.027302,43.5501186 261.881482,41.4265025 261.881482,39.15 C261.881482,36.8734975 263.027302,34.7498814 264.93,33.5 L264.93,33.5 Z" id="Path"></path>
            </g>
            <polygon id="Polygon" fill="#06F27B" points="210.5 0 359.35 61.65 421 210.5 359.35 359.35 210.5 421 61.65 359.35 0 210.5 61.65 61.65"></polygon>
            <polygon id="Path" points="73.9 347.1 210.5 403.68 347.1 347.1 378.83 270.5 42.17 270.5"></polygon>
            <polygon id="Path" points="347.1 73.9 210.5 17.32 73.9 73.9 42.17 150.5 378.83 150.5"></polygon>
            <path d="M421,210.5 L419.28,206.34 L419.28,206.34 L396.15,150.5 L396.15,150.5 L359.35,61.65 L210.5,0 L61.65,61.65 L24.85,150.5 L24.85,150.5 L1.91,205.9 L0,210.5 L3.72,219.5 L24.85,270.5 L24.85,270.5 L61.65,359.35 L210.5,421 L359.35,359.35 L396.15,270.5 L396.15,270.5 L419.28,214.66 L419.28,214.66 L421,210.5 Z M73.9,73.9 L210.5,17.32 L347.1,73.9 L378.83,150.5 L42.17,150.5 L73.9,73.9 Z M347.1,347.1 L210.5,403.68 L73.9,347.1 L42.17,270.5 L378.83,270.5 L347.1,347.1 Z" id="Shape" fill="#041F41" fill-rule="nonzero"></path>
            <path d="M193.84,87.93 L197.39,85.6 L197.39,85.6 L219.49,70.89 C219.952611,70.6394313 220.474327,70.5185038 221,70.54 C222.964962,70.7989215 224.67529,72.0114953 225.57,73.78 C227.1,76.45 226.84,79.42 225.02,80.46 L224.51,80.69 L200.75,92.48 L200.75,92.48 L197.91,93.84 L200.74,95.28 L225,107.46 C226.81,108.46 227,111.46 225.52,114.13 C224.04,116.8 221.27,118.04 219.52,117 L197.45,102.22 L197.45,102.22 L193.9,99.88 C190.608056,97.6839436 189.71357,93.2383449 191.9,89.94 C192.430699,89.1499752 193.109975,88.4706992 193.9,87.94" id="Path" fill="#FFFFFF" fill-rule="nonzero"></path>
            <path d="M74.53,185.76 C74.53,185.025461 75.1254613,184.43 75.86,184.43 L103.86,184.43 C104.594539,184.43 105.19,185.025461 105.19,185.76 L105.19,189.68 C105.19,190.414539 104.594539,191.01 103.86,191.01 L81.74,191.01 L81.74,205.29 L100.43,205.29 C101.153594,205.315775 101.734225,205.896406 101.76,206.62 L101.76,210.54 C101.76,210.892738 101.619875,211.231029 101.370452,211.480452 C101.121029,211.729875 100.782738,211.87 100.43,211.87 L81.74,211.87 L81.74,226.87 L103.86,226.87 C104.212738,226.87 104.551029,227.010125 104.800452,227.259548 C105.049875,227.508971 105.19,227.847262 105.19,228.2 L105.19,232.05 C105.19,232.402738 105.049875,232.741029 104.800452,232.990452 C104.551029,233.239875 104.212738,233.38 103.86,233.38 L75.86,233.38 C75.1254613,233.38 74.53,232.784539 74.53,232.05 L74.53,185.76 Z" id="Path" fill="#FFFFFF" fill-rule="nonzero"></path>
            <path d="M112.609809,202.21 C112.603586,201.8244 112.758818,201.453707 113.038085,201.187739 C113.317352,200.921771 113.695171,200.784795 114.08,200.81 C116.6,200.81 117.93,202.49 118.28,204.73 C121.123876,201.89995 124.988288,200.33544 129,200.39 C138.87,200.39 141.53,207.25 141.53,215.65 L141.53,231.89 C141.499144,232.727405 140.827405,233.399144 139.99,233.43 L136.07,233.43 C135.221751,233.424545 134.535455,232.738249 134.53,231.89 L134.53,215.37 C134.53,210.12 132.36,207.04 128.16,207.04 C124.684821,206.985407 121.438614,208.76816 119.62,211.73 L119.62,231.89 C119.62,232.94 119.06,233.43 117.73,233.43 L114.16,233.43 C113.311751,233.424545 112.625455,232.738249 112.62,231.89 L112.609809,202.21 Z" id="Path" fill="#FFFFFF" fill-rule="nonzero"></path>
            <path d="M165.11,200.39 C169.070372,200.286314 172.898521,201.818849 175.693256,204.62683 C178.487992,207.43481 180.00241,211.270162 179.88,215.23 C179.88,215.79 179.81,216.91 179.74,217.47 C179.683574,218.245557 179.047385,218.851451 178.27,218.87 L155.94,218.87 C156.01,223.21 159.94,227.69 165.6,227.69 C168.47147,227.712504 171.263678,226.748821 173.51,224.96 C174.21,224.47 174.84,224.26 175.4,225.1 L177.29,228.04 C177.85,228.74 178.13,229.37 177.15,230.21 C173.742992,232.909579 169.495354,234.325459 165.15,234.21 C155.35,234.21 148.98,226.51 148.98,217.27 C148.98,208.03 155.38,200.39 165.11,200.39 Z M172.95,213.69 C172.874867,211.650574 171.986912,209.725978 170.484081,208.345252 C168.98125,206.964526 166.988477,206.242453 164.95,206.34 C159.84,206.34 156.76,209.63 156.27,213.69 L172.95,213.69 Z" id="Shape" fill="#FFFFFF" fill-rule="nonzero"></path>
            <path d="M187.23,202.21 C187.223586,201.8244 187.378818,201.453707 187.658085,201.187739 C187.937352,200.921771 188.315171,200.784795 188.7,200.81 C191.22,200.81 192.62,202.56 192.97,204.87 C195.327783,202.007242 198.851403,200.361171 202.56,200.39 C205.64,200.39 209.49,201.23 208.44,203.39 L206.76,206.89 C206.628399,207.283123 206.328193,207.596986 205.94131,207.745936 C205.554428,207.894886 205.121252,207.863374 204.76,207.66 C203.828626,207.266069 202.83101,207.052294 201.82,207.03 C198.706493,207.093672 195.836032,208.726412 194.19,211.37 L194.19,231.88 C194.19,233.28 193.28,233.42 191.95,233.42 L188.73,233.42 C187.881751,233.414545 187.195455,232.728249 187.19,231.88 L187.23,202.21 Z" id="Path" fill="#FFFFFF" fill-rule="nonzero"></path>
            <path d="M243.23,233.64 C243.23,243.72 236.72,248.76 228.23,248.76 C224.136291,248.760703 220.172338,247.32377 217.03,244.7 C216.507673,244.246587 216.363099,243.494803 216.68,242.88 L218.36,239.8 C218.532233,239.394099 218.889302,239.095905 219.319403,238.998785 C219.749505,238.901666 220.200062,239.017493 220.53,239.31 C222.630946,241.148118 225.300353,242.207407 228.09,242.31 C232.36,242.31 236.09,240.21 236.09,233.63 L236.09,231.88 C233.575057,233.333133 230.733903,234.127693 227.83,234.19 C219.01,234.19 212.22,226.7 212.22,217.25 C212.22,208.01 218.59,200.379875 227.48,200.379875 C231.176675,200.365075 234.755053,201.682117 237.56,204.09 C237.914459,202.1114 239.682234,200.703172 241.69,200.8 C242.074829,200.774795 242.452648,200.911771 242.731915,201.177739 C243.011182,201.443707 243.166414,201.8144 243.16,202.2 L243.23,233.64 Z M228.74,227.55 C231.443487,227.476802 234.058777,226.572449 236.23,224.96 L236.23,211.59 C234.572812,208.860285 231.65149,207.1496 228.46,207.04 C222.93,207.04 219.29,211.8 219.29,217.26 C219.29,222.72 223.49,227.55 228.74,227.55 L228.74,227.55 Z" id="Shape" fill="#FFFFFF" fill-rule="nonzero"></path>
            <path d="M251.9,189.47 C251.870469,188.222983 252.343186,187.016387 253.211946,186.121301 C254.080707,185.226215 255.272657,184.717698 256.52,184.71 C258.259937,184.629934 259.903091,185.512593 260.796998,187.007492 C261.690905,188.502391 261.690905,190.367609 260.796998,191.862508 C259.903091,193.357407 258.259937,194.240066 256.52,194.16 C255.283315,194.157433 254.099054,193.660227 253.231184,192.779207 C252.363314,191.898187 251.883971,190.706583 251.9,189.47 Z M253,202.63 C253.035594,201.794669 253.704669,201.125594 254.54,201.09 L258.47,201.09 C259.295396,201.147793 259.952207,201.804604 260.01,202.63 L260.01,231.89 C259.979144,232.727405 259.307405,233.399144 258.47,233.43 L254.54,233.43 C253.693986,233.419221 253.010779,232.736014 253,231.89 L253,202.63 Z" id="Shape" fill="#FFFFFF" fill-rule="nonzero"></path>
            <path d="M267.3,231.89 C267.266595,231.236326 267.464902,230.591827 267.86,230.07 L281.52,207.74 L281.52,207.6 L269.52,207.6 C268.707923,207.538872 268.073312,206.874041 268.05,206.06 L268.05,202.63 C268.039264,202.230442 268.188441,201.843124 268.464426,201.553997 C268.74041,201.26487 269.120375,201.09785 269.52,201.09 L290.39,201.09 C291.220934,201.032769 291.941294,201.659169 292,202.49 C291.997054,202.782621 291.925104,203.070418 291.79,203.33 L277.64,226.85 L277.64,227.06 L288.8,227.06 C289.214309,227.039753 289.617889,227.19549 289.911199,227.488801 C290.20451,227.782111 290.360247,228.185691 290.34,228.6 L290.34,231.89 C290.348248,232.300906 290.188649,232.697422 289.898035,232.988035 C289.607422,233.278649 289.210906,233.438248 288.8,233.430305 L268.8,233.430305 C267.967411,233.403143 267.304941,232.723007 267.3,231.89 Z" id="Path" fill="#FFFFFF" fill-rule="nonzero"></path>
            <path d="M312.39,200.39 C316.350372,200.286314 320.178521,201.818849 322.973256,204.62683 C325.767992,207.43481 327.28241,211.270162 327.16,215.23 C327.16,215.79 327.09,216.91 327.02,217.47 C326.963574,218.245557 326.327385,218.851451 325.55,218.87 L303.21,218.87 C303.28,223.21 307.21,227.69 312.88,227.69 C315.75147,227.712504 318.543678,226.748821 320.79,224.96 C321.49,224.47 322.12,224.26 322.68,225.1 L324.57,228.04 C325.13,228.74 325.41,229.37 324.43,230.21 C321.022992,232.909579 316.775354,234.325459 312.43,234.21 C302.62,234.21 296.25,226.51 296.25,217.27 C296.25,208.03 302.65,200.39 312.39,200.39 Z M320.23,213.69 C320.154867,211.650574 319.266912,209.725978 317.764081,208.345252 C316.26125,206.964526 314.268477,206.242453 312.23,206.34 C307.11,206.34 304.03,209.63 303.54,213.69 L320.23,213.69 Z" id="Shape" fill="#FFFFFF" fill-rule="nonzero"></path>
            <path d="M334.5,202.21 C334.493586,201.8244 334.648818,201.453707 334.928085,201.187739 C335.207352,200.921771 335.585171,200.784795 335.97,200.81 C338.49,200.81 339.89,202.56 340.24,204.87 C342.600898,202.005672 346.128223,200.359587 349.84,200.39 C352.92,200.39 356.77,201.23 355.72,203.39 L354,206.9 C353.868399,207.293123 353.568193,207.606986 353.18131,207.755936 C352.794428,207.904886 352.361252,207.873374 352,207.67 C351.068626,207.276069 350.07101,207.062294 349.06,207.04 C345.942917,207.100317 343.067955,208.733476 341.42,211.38 L341.42,231.89 C341.42,233.29 340.51,233.43 339.18,233.43 L336,233.43 C335.151751,233.424545 334.465455,232.738249 334.46,231.89 L334.5,202.21 Z" id="Path" fill="#FFFFFF" fill-rule="nonzero"></path>
            <path d="M210.55,293.52 C207.48,293.52 205.07,295.24 205.07,297.32 L207,316.11 C207.21,317.39 208.77,318.36 210.64,318.36 L210.64,318.36 C212.52,318.36 214.08,317.36 214.28,316.1 L216.1,297.31 C216.1,295.23 213.67,293.52 210.63,293.52" id="Path" fill="#FFFFFF" fill-rule="nonzero"></path>
            <path d="M224.07,326.21 C225.01,327.84 226.64,328.7 227.85,328.21 L245.05,320.4 C246.86,319.4 247.12,316.4 245.57,313.72 C244.02,311.04 241.33,309.8 239.57,310.86 L224.24,321.86 C223.24,322.68 223.19,324.51 224.12,326.16" id="Path" fill="#FFFFFF" fill-rule="nonzero"></path>
            <path d="M210.55,349.73 C212.42,349.73 214,350.73 214.2,351.97 L216.09,370.76 C216.09,372.85 213.65,374.57 210.62,374.580043 C207.59,374.59 205.14,372.87 205.14,370.77 L207,352 C207.2,350.73 208.76,349.75 210.65,349.75" id="Path" fill="#FFFFFF" fill-rule="nonzero"></path>
            <path d="M224.06,341.92 C224.692829,340.448377 226.250792,339.601209 227.83,339.87 L245.05,347.63 C246.86,348.63 247.13,351.63 245.58,354.31 C244.03,356.99 241.36,358.22 239.58,357.18 L224.21,346.24 C223.21,345.41 223.16,343.5 224.09,341.94" id="Path" fill="#FFFFFF" fill-rule="nonzero"></path>
            <path d="M207.32,327.88 L203.77,325.56 L203.77,325.56 L181.67,310.84 C181.210513,310.590722 180.692361,310.469819 180.17,310.49 C178.201337,310.745805 176.486648,311.958816 175.59,313.73 C174.06,316.4 174.32,319.37 176.14,320.41 L176.65,320.64 L200.41,332.43 L200.41,332.43 L203.25,333.8 L200.42,335.23 L176.17,347.41 C174.36,348.41 174.17,351.41 175.65,354.08 C177.13,356.75 179.91,357.99 181.65,356.95 L203.72,342.17 L203.72,342.17 L207.27,339.83 C208.852569,338.778869 209.952502,337.141866 210.327616,335.279424 C210.70273,333.416983 210.322268,331.481813 209.27,329.9 C208.74464,329.105599 208.064401,328.42536 207.27,327.9" id="Path" fill="#FFFFFF" fill-rule="nonzero"></path>
        </g>
    </g>
</svg>