<?xml version="1.0" encoding="UTF-8"?>
<svg width="421px" height="418px" viewBox="0 0 421 418" version="1.1" xmlns="http://www.w3.org/2000/svg" xmlns:xlink="http://www.w3.org/1999/xlink">
    <title>Impact Driver</title>
    <g id="Impact-Driver" stroke="none" stroke-width="1" fill="none" fill-rule="evenodd">
        <g id="Impact-Driver-copy" fill-rule="nonzero">
            <rect id="Rectangle" fill="#06F27B" x="160.01" y="256.12" width="100.98" height="8"></rect>
            <polygon id="Path" fill="#06F27B" points="32.37 307.36 32.37 254.06 388.63 254.06 388.63 307.36 210.5 407.87"></polygon>
            <path d="M380.63,262.05 L380.63,302.69 L210.5,398.69 L40.37,302.69 L40.37,262.05 L380.63,262.05 M396.63,246.05 L24.37,246.05 L24.37,312.05 L210.5,417.05 L396.63,312 L396.63,246 L396.63,246.05 Z" id="Shape" fill="#041F41"></path>
            <polygon id="Path" fill="#605E63" points="32.37 163.47 32.37 110.16 210.5 9.65 388.63 110.16 388.63 163.47"></polygon>
            <path d="M210.5,18.83 L380.63,114.83 L380.63,155.46 L40.37,155.46 L40.37,114.84 L210.5,18.84 M210.5,0.47 L24.37,105.47 L24.37,171.47 L396.63,171.47 L396.63,105.47 L210.5,0.46 L210.5,0.47 Z" id="Shape" fill="#041F41"></path>
            <rect id="Rectangle" fill="#041F41" x="0" y="139.5" width="421" height="140"></rect>
            <path d="M22.76,188.51 C22.7757222,187.931216 23.2412156,187.465722 23.82,187.45 L27.52,187.45 C28.0987844,187.465722 28.5642778,187.931216 28.58,188.51 L28.58,225.58 C28.5642778,226.158784 28.0987844,226.624278 27.52,226.64 L23.82,226.64 C23.2412156,226.624278 22.7757222,226.158784 22.76,225.58 L22.76,188.51 Z" id="Path" fill="#FFFFFF"></path>
            <path d="M37.0997747,201.67 C37.0937757,201.362261 37.2167737,201.065991 37.4391218,200.853145 C37.6614699,200.640299 37.9628258,200.53035 38.27,200.55 C40.009996,200.496212 41.4870932,201.815048 41.63,203.55 C43.7609646,201.393696 46.668398,200.183166 49.7,200.19 C52.8734876,200.038261 55.8848054,201.599261 57.59,204.28 C59.8246037,201.783083 62.981178,200.305922 66.33,200.19 C74.22,200.19 76.18,205.68 76.18,212.4 L76.18,225.4 C76.1907708,225.721691 76.0718571,226.034223 75.8499709,226.267392 C75.6280848,226.50056 75.3218294,226.634816 75,226.64 L71.82,226.64 C71.4870511,226.660429 71.1612131,226.53777 70.924387,226.302854 C70.6875608,226.067937 70.5622674,225.743103 70.58,225.41 L70.58,212.2 C70.58,208.05 69.02,205.53 65.49,205.53 C63.0725688,205.550415 60.7909476,206.650876 59.27,208.53 C59.4293386,209.6797 59.5062015,210.839328 59.5,212 L59.5,225.38 C59.5005457,226.040254 58.9797081,226.583161 58.32,226.61 L55.13,226.61 C54.8013021,226.618326 54.4835862,226.491412 54.2510871,226.258913 C54.0185881,226.026414 53.8916745,225.708698 53.9,225.38 L53.9,212.2 C53.9,208 52.38,205.53 48.8,205.53 C46.2019789,205.466584 43.8107351,206.940531 42.7,209.29 L42.7,225.41 C42.6740389,226.082116 42.1323043,226.619482 41.46,226.64 L38.33,226.64 C37.6529552,226.634562 37.1054384,226.087045 37.0997747,225.41 L37.0997747,201.67 Z" id="Path" fill="#FFFFFF"></path>
            <path d="M89.46,238.74 C89.4771366,239.095307 89.3370606,239.440154 89.07701,239.682868 C88.8169593,239.925582 88.4632821,240.041571 88.11,240 L85,240 C84.3190532,240.000022 83.7654915,239.450925 83.7597606,238.77 L83.7597606,201.67 C83.7535447,201.360399 83.8778874,201.062417 84.102492,200.849233 C84.3270967,200.636049 84.6311563,200.527411 84.94,200.55 C86.5604249,200.487793 87.9742812,201.6403 88.24,203.24 C90.4566809,201.260179 93.3383408,200.18893 96.31,200.24 C103.42,200.24 108.52,206.35 108.52,213.74 C108.52,221.3 103.14,227.29 96.08,227.29 C93.7654435,227.250995 91.4970946,226.635792 89.48,225.5 L89.46,238.74 Z M89.34,220 C91.1088833,221.211137 93.1963987,221.872183 95.34,221.9 C99.54,221.9 102.89,218.32 102.89,213.67 C102.89,209.02 99.98,205.489865 95.56,205.489865 C92.9768813,205.474053 90.5912871,206.870125 89.34,209.13 L89.34,220 Z" id="Shape" fill="#FFFFFF"></path>
            <path d="M123.17,210.29 C124.930813,210.3202 126.679666,210.585891 128.37,211.08 C128.49,206.99 126.37,205.14 123.17,205.14 C121.061054,205.191289 118.976923,205.607439 117.01,206.37 C116.673021,206.446326 116.319496,206.373698 116.0399,206.170704 C115.760305,205.96771 115.581774,205.65405 115.55,205.31 L115.05,203.18 C114.942348,202.868317 114.972434,202.525547 115.132737,202.237383 C115.29304,201.949219 115.568408,201.742898 115.89,201.67 C118.199598,200.594651 120.734984,200.093749 123.28,200.21 C131.57,200.21 133.86,205.21 133.86,211.64 L133.86,225.75 C133.866224,226.057739 133.743226,226.354009 133.520878,226.566855 C133.29853,226.779701 132.997174,226.88965 132.69,226.87 C130.93089,226.946282 129.423551,225.624055 129.27,223.87 C127.14661,226.073738 124.210151,227.306907 121.15,227.28 C116.28,227.28 112.81,224.03 112.81,218.66 C112.81,213.88 116.5,210.29 123.17,210.29 Z M122.33,222.67 C124.696224,222.563182 126.893465,221.413293 128.33,219.53 L128.33,215.22 C126.836699,214.606662 125.234139,214.303843 123.62,214.33 C120.62,214.33 118.3,215.89 118.3,218.58 C118.206776,219.680039 118.599115,220.765857 119.373959,221.552236 C120.148802,222.338616 121.228704,222.746958 122.33,222.67 L122.33,222.67 Z" id="Shape" fill="#FFFFFF"></path>
            <path d="M153.13,200.21 C156.804976,200.088036 160.310232,201.758626 162.53,204.69 C162.756278,204.96047 162.860948,205.312311 162.819306,205.662485 C162.777663,206.012659 162.593398,206.33014 162.31,206.54 L160.31,208.39 C159.59,209.06 159.08,208.56 158.63,208.11 C157.265953,206.582529 155.354037,205.655322 153.31,205.53 C151.176679,205.547634 149.140934,206.426248 147.664745,207.966455 C146.188557,209.506662 145.397106,211.577852 145.47,213.71 C145.47,218.36 148.83,221.94 153.15,221.94 C156.51,221.94 157.85,220.04 159.25,218.75 C159.459413,218.493982 159.765932,218.336671 160.096028,218.315803 C160.426124,218.294935 160.750013,218.412393 160.99,218.64 L162.72,220.04 C163.34,220.6 163.62,221.21 163.17,221.88 C160.960153,225.288961 157.152101,227.321434 153.09,227.26 C149.534845,227.266245 146.127473,225.838166 143.639134,223.299006 C141.150795,220.759846 139.791889,217.324302 139.87,213.77 C139.803269,206.370335 145.730694,200.308806 153.13,200.21 Z" id="Path" fill="#FFFFFF"></path>
            <path d="M167.8,205.53 C167.12069,205.53 166.57,204.97931 166.57,204.3 L166.57,202 C166.555677,201.669601 166.68066,201.348354 166.914507,201.114507 C167.148354,200.88066 167.469601,200.755677 167.8,200.77 L170.8,200.77 L170.8,193.55 C170.805438,192.872955 171.352955,192.325438 172.03,192.32 L175.22,192.32 C175.540044,192.325234 175.844733,192.458113 176.066325,192.689095 C176.287917,192.920076 176.408045,193.230014 176.4,193.55 L176.4,200.77 L183.23,200.77 C183.557861,200.764535 183.873902,200.892368 184.105767,201.124233 C184.337632,201.356098 184.465465,201.672139 184.46,202 L184.46,204.3 C184.434363,204.968403 183.898403,205.504363 183.23,205.53 L176.4,205.53 L176.4,219.31 C176.4,221.49 177.8,221.94 179.48,221.94 C180.582724,221.869447 181.654091,221.544272 182.61,220.99 C182.875707,220.815553 183.208522,220.777814 183.506543,220.888339 C183.804564,220.998863 184.032292,221.244485 184.12,221.55 L185.12,224.18 C185.4,224.85 185.12,225.3 184.51,225.69 C182.796431,226.655288 180.875634,227.193797 178.91,227.26 C173.31,227.26 170.79,224.13 170.79,219.53 L170.79,205.53 L167.8,205.53 Z" id="Path" fill="#FFFFFF"></path>
            <path d="M204.919939,188.51 C204.913982,187.945217 205.355824,187.476864 205.92,187.45 L218.8,187.45 C225.906147,187.289458 232.542293,190.988734 236.14252,197.117474 C239.742747,203.246215 239.742747,210.843785 236.14252,216.972526 C232.542293,223.101266 225.906147,226.800542 218.8,226.64 L205.93,226.64 C205.365824,226.613136 204.923982,226.144783 204.93,225.58 L204.919939,188.51 Z M218.2,221.33 C226.43,221.33 232.25,215.28 232.25,206.99 C232.25,198.7 226.43,192.77 218.2,192.77 L210.64,192.77 L210.64,221.33 L218.2,221.33 Z" id="Shape" fill="#FFFFFF"></path>
            <path d="M244.57,201.67 C244.563545,201.360399 244.687887,201.062417 244.912492,200.849233 C245.137097,200.636049 245.441156,200.527411 245.75,200.55 C247.75,200.55 248.88,201.95 249.16,203.8 C251.047728,201.506529 253.869644,200.187431 256.84,200.21 C259.3,200.21 262.38,200.88 261.54,202.62 L260.2,205.42 C260.091727,205.7249 259.856887,205.968078 259.555949,206.08692 C259.255011,206.205761 258.917383,206.188653 258.63,206.04 C257.886986,205.71973 257.088931,205.546535 256.28,205.53 C253.789038,205.584301 251.492625,206.888484 250.17,209 L250.17,225.41 C250.17,226.53 249.44,226.64 248.38,226.64 L245.8,226.64 C245.122955,226.634562 244.575438,226.087045 244.57,225.41 L244.57,201.67 Z" id="Path" fill="#FFFFFF"></path>
            <path d="M265.29,191.48 C265.265819,190.481355 265.644295,189.514946 266.340231,188.798321 C267.036166,188.081696 267.991075,187.675078 268.99,187.67 C271.077636,187.67 272.77,189.362364 272.77,191.45 C272.77,193.537636 271.077636,195.23 268.99,195.23 C268.000812,195.227391 267.053625,194.829857 266.358871,194.125714 C265.664117,193.421571 265.279331,192.469134 265.29,191.48 L265.29,191.48 Z M266.19,202 C266.215637,201.331597 266.751597,200.795637 267.42,200.77 L270.56,200.77 C271.218451,200.817899 271.742101,201.341549 271.79,202 L271.79,225.41 C271.764363,226.078403 271.228403,226.614363 270.56,226.64 L267.42,226.64 C266.742955,226.634562 266.195438,226.087045 266.19,225.41 L266.19,202 Z" id="Shape" fill="#FFFFFF"></path>
            <path d="M276.83,202.23 C276.38,201.45 276.83,200.77 277.78,200.77 L281.19,200.77 C281.684438,200.736012 282.1415,201.033918 282.31,201.5 L289.2,217.35 L289.31,217.35 L296.54,201.5 C296.88,200.77 297.54,200.77 298.27,200.77 L300.8,200.77 C301.75,200.77 302.19,201.45 301.75,202.23 L290.55,226.59 C290.352835,227.001393 289.936194,227.26228 289.48,227.260142 L289.15,227.260142 C288.679829,227.267091 288.246098,227.007628 288.03,226.59 L276.83,202.23 Z" id="Path" fill="#FFFFFF"></path>
            <path d="M317.37,200.21 C320.539564,200.128761 323.602711,201.356315 325.838984,203.60394 C328.075257,205.851564 329.287287,208.920888 329.19,212.09 C329.19,212.53 329.13,213.43 329.07,213.88 C329.028742,214.499921 328.521131,214.985839 327.9,215 L310,215 C310.276978,219.038922 313.682708,222.145053 317.73,222.05 C320.0278,222.072205 322.263143,221.302371 324.06,219.87 C324.62,219.48 325.12,219.31 325.57,219.98 L327.08,222.33 C327.53,222.89 327.76,223.4 326.97,224.07 C324.250768,226.218949 320.864755,227.34762 317.4,227.26 C309.56,227.26 304.46,221.1 304.46,213.71 C304.46,206.32 309.59,200.21 317.37,200.21 Z M323.64,210.85 C323.580312,209.221905 322.872879,207.685071 321.674882,206.580961 C320.476885,205.476851 318.887549,204.896913 317.26,204.97 C313.742501,204.752543 310.678201,207.345073 310.31,210.85 L323.64,210.85 Z" id="Shape" fill="#FFFFFF"></path>
            <path d="M335.07,201.67 C335.063776,201.362261 335.186774,201.065991 335.409122,200.853145 C335.63147,200.640299 335.932826,200.53035 336.24,200.55 C338.24,200.55 339.38,201.95 339.66,203.8 C341.543707,201.506933 344.362508,200.187572 347.33,200.21 C349.79,200.21 352.87,200.88 352.03,202.62 L350.69,205.42 C350.581727,205.7249 350.346887,205.968078 350.045949,206.08692 C349.745011,206.205761 349.407383,206.188653 349.12,206.04 C348.377378,205.71851 347.57908,205.545262 346.77,205.53 C344.280614,205.580386 341.985481,206.885977 340.67,209 L340.67,225.41 C340.67,226.53 339.94,226.64 338.87,226.64 L336.3,226.64 C335.622955,226.634562 335.075438,226.087045 335.07,225.41 L335.07,201.67 Z" id="Path" fill="#FFFFFF"></path>
            <path d="M364.35,184.76 C364.486127,184.507616 364.72405,184.325814 365.003331,184.260776 C365.282613,184.195738 365.576377,184.253722 365.81,184.42 L368.05,185.65 C368.325336,185.763104 368.528936,186.00243 368.596448,186.292334 C368.66396,186.582238 368.58704,186.886891 368.39,187.11 C364.58,192.54 362.23,199.71 362.28,208.78 C362.33,217.85 364.58,225.02 368.39,230.45 C368.58704,230.673109 368.66396,230.977762 368.596448,231.267666 C368.528936,231.55757 368.325336,231.796896 368.05,231.91 L365.81,233.14 C365.25,233.48 364.86,233.48 364.63,233.2 C360.63,228.2 356.85,220.37 356.91,208.78 C356.774437,200.186142 359.380465,191.772595 364.35,184.76 Z" id="Path" fill="#FFFFFF"></path>
            <path d="M378.75,233.2 C378.52,233.48 378.13,233.48 377.57,233.14 L375.33,231.91 C375.054664,231.796896 374.851064,231.55757 374.783552,231.267666 C374.71604,230.977762 374.79296,230.673109 374.99,230.45 C378.8,225.02 381.04,217.8 381.1,208.78 C381.16,199.76 378.8,192.54 374.99,187.11 C374.79296,186.886891 374.71604,186.582238 374.783552,186.292334 C374.851064,186.00243 375.054664,185.763104 375.33,185.65 L377.57,184.42 C377.803623,184.253722 378.097387,184.195738 378.376669,184.260776 C378.65595,184.325814 378.893873,184.507616 379.03,184.76 C383.995472,191.767055 386.601298,200.172946 386.47,208.76 C386.53,220.37 382.72,228.21 378.75,233.2 Z" id="Path" fill="#FFFFFF"></path>
            <path d="M397.56,219.2 C400.36,219.2 402.21,221.77 402.21,225.64 C402.239073,229.048185 400.778012,232.299044 398.21,234.54 C397.82,234.88 397.48,234.77 397.14,234.43 L395.97,233.31 C395.63,232.92 395.86,232.53 396.19,232.19 C397.7,230.68 399.05,228.94 399.05,226.98 C399.063162,226.583604 399.026202,226.187133 398.94,225.8 C398.372778,226.172703 397.70871,226.370881 397.03,226.37 C396.155496,226.359994 395.322427,225.995799 394.721214,225.360661 C394.12,224.725523 393.802036,223.873737 393.84,223 C393.783175,221.989855 394.154039,221.002424 394.861798,220.279444 C395.569557,219.556465 396.548875,219.164678 397.56,219.2 L397.56,219.2 Z M397.84,200.2 C399.464734,200.167499 400.947652,201.121191 401.592061,202.61302 C402.23647,204.10485 401.914277,205.838276 400.776851,206.998914 C399.639426,208.159553 397.912862,208.516695 396.40832,207.902553 C394.903777,207.28841 393.920325,205.825059 393.92,204.2 C393.925001,202.02562 395.666049,200.253482 397.84,200.21 L397.84,200.2 Z" id="Shape" fill="#FFFFFF"></path>
            <path d="M211.78,299.26 C209.25,299.26 207.26,300.69 207.26,302.4 L208.82,317.93 C208.99,318.98 210.28,319.78 211.82,319.78 L211.82,319.78 C213.37,319.78 214.66,318.97 214.82,317.92 L216.32,302.39 C216.32,300.67 214.32,299.26 211.8,299.26" id="Path" fill="#FFFFFF"></path>
            <path d="M223,326.27 C223.78,327.62 225.13,328.33 226.12,327.96 L240.34,321.5 C241.83,320.64 242.04,318.18 240.77,315.98 C239.5,313.78 237.26,312.75 235.77,313.62 L223.11,322.73 C222.28,323.41 222.23,324.93 223,326.28" id="Path" fill="#FFFFFF"></path>
            <path d="M211.78,345.7 C213.33,345.7 214.63,346.5 214.78,347.55 L216.34,363.08 C216.34,364.81 214.34,366.22 211.82,366.230052 C209.3,366.24 207.3,364.82 207.3,363.09 L208.81,347.56 C208.98,346.51 210.27,345.7 211.81,345.7" id="Path" fill="#FFFFFF"></path>
            <path d="M222.94,339.25 C223.468277,338.036817 224.755255,337.339704 226.06,337.56 L240.29,344 C241.78,344.86 242.01,347.31 240.73,349.52 C239.45,351.73 237.23,352.75 235.73,351.89 L223.03,342.89 C222.22,342.21 222.16,340.62 222.93,339.34" id="Path" fill="#FFFFFF"></path>
            <path d="M209.11,327.65 L206.19,325.73 L206.19,325.73 L187.93,313.58 C187.548738,313.367237 187.116297,313.263451 186.68,313.28 C185.044195,313.496927 183.625391,314.517865 182.9,316 C181.64,318.21 181.85,320.66 183.36,321.52 L183.78,321.71 L203.4,331.45 L203.4,331.45 L205.76,332.58 L203.42,333.76 L183.42,343.83 C181.93,344.69 181.72,347.14 182.99,349.33 C184.26,351.52 186.51,352.57 187.99,351.71 L206.23,339.5 L206.23,339.5 L209.15,337.56 C210.813703,336.464968 211.815253,334.606733 211.815253,332.615 C211.815253,330.623267 210.813703,328.765032 209.15,327.67" id="Path" fill="#FFFFFF"></path>
            <path d="M197.63,84.09 L200.56,82.17 L200.56,82.17 L218.82,70 C219.20088,69.7862608 219.633601,69.6824078 220.07,69.7 C221.695099,69.9083808 223.109183,70.9136181 223.84,72.38 C225.11,74.59 224.84,77.04 223.39,77.9 L222.97,78.09 L203.34,87.83 L203.34,87.83 L201,89 L203.34,90.18 L223.34,100.25 C224.83,101.11 225.03,103.56 223.77,105.75 C222.51,107.94 220.25,108.99 218.77,108.13 L200.56,95.9 L200.56,95.9 L197.63,94 C195.975229,92.8987209 194.980984,91.0427332 194.980984,89.055 C194.980984,87.0672668 195.975229,85.2112791 197.63,84.11" id="Path" fill="#FFFFFF"></path>
        </g>
    </g>
</svg>