<?xml version="1.0" encoding="UTF-8"?>
<svg width="421px" height="421px" viewBox="0 0 421 421" version="1.1" xmlns="http://www.w3.org/2000/svg" xmlns:xlink="http://www.w3.org/1999/xlink">
    <title>Badges/Peer/Learning Champion</title>
    <g id="Badges/Peer/Learning-Champion" stroke="none" stroke-width="1" fill="none" fill-rule="evenodd">
        <polygon id="Path" fill="#06F27B" fill-rule="nonzero" points="10 275.31 10 10 411 10 411 275.31 210.5 408.98"></polygon>
        <path d="M401,20 L401,270 L210.5,397 L20,270 L20,20 L401,20 M421,0 L0,0 L0,280.67 L210.5,421 L421,280.67 L421,0 Z" id="Shape" fill="#041F41" fill-rule="nonzero"></path>
        <polygon id="Path" fill="#06F27B" fill-rule="nonzero" points="8 276.38 8 258.24 413 258.24 413 276.38 210.5 411.38"></polygon>
        <path d="M405,266.24 L405,272.1 L210.5,401.77 L16,272.1 L16,266.24 L405,266.24 M421,250.24 L0,250.24 L0,280.67 L210.5,421 L421,280.67 L421,250.24 Z" id="Shape" fill="#041F41" fill-rule="nonzero"></path>
        <rect id="Rectangle" fill="#041F41" fill-rule="nonzero" x="1" y="142" width="420" height="136"></rect>
        <path d="M210.46,298.18 C207.74,298.18 205.59,299.72 205.59,301.56 L207.27,318.27 C207.46,319.4 208.84,320.27 210.51,320.27 L210.51,320.27 C212.18,320.27 213.56,319.4 213.75,318.27 L215.36,301.56 C215.36,299.71 213.2,298.19 210.5,298.19" id="Path" fill="#041F41" fill-rule="nonzero"></path>
        <path d="M222.48,327.25 C223.32,328.69 224.77,329.46 225.84,329.06 L241.13,322.11 C242.73,321.19 242.97,318.53 241.59,316.17 C240.21,313.81 237.82,312.7 236.21,313.63 L222.59,323.44 C221.7,324.17 221.65,325.8 222.48,327.26" id="Path" fill="#041F41" fill-rule="nonzero"></path>
        <path d="M210.46,348.15 C212.13,348.15 213.53,349.01 213.71,350.15 L215.39,366.85 C215.39,368.71 213.22,370.23 210.52,370.250193 C207.82,370.27 205.66,368.73 205.66,366.87 L207.29,350.16 C207.47,349.03 208.85,348.16 210.53,348.16" id="Path" fill="#041F41" fill-rule="nonzero"></path>
        <path d="M222.47,341.21 C223.032811,339.89791 224.423546,339.144596 225.83,339.39 L241.13,346.28 C242.73,347.21 242.98,349.85 241.6,352.22 C240.22,354.59 237.84,355.7 236.24,354.78 L222.58,345 C221.7,344.27 221.64,342.57 222.47,341.18" id="Path" fill="#041F41" fill-rule="nonzero"></path>
        <path d="M207.59,328.73 L204.44,326.66 L204.44,326.66 L184.79,313.58 C184.379258,313.358256 183.916396,313.251175 183.45,313.27 C181.69999,313.490099 180.176114,314.571075 179.39,316.15 C178.03,318.52 178.26,321.15 179.88,322.09 L180.33,322.29 L201.45,332.77 L201.45,332.77 L204,334 L201.48,335.28 L179.9,346.09 C178.3,347.01 178.08,349.65 179.44,352.01 C180.8,354.37 183.22,355.49 184.82,354.57 L204.44,341.43 L204.44,341.43 L207.59,339.35 C209.001718,338.419723 209.985707,336.966393 210.325206,335.310161 C210.664706,333.65393 210.331863,331.930671 209.4,330.52 C208.928226,329.798072 208.311928,329.181774 207.59,328.71" id="Path" fill="#041F41" fill-rule="nonzero"></path>
        <path d="M209.802691,47.2616841 C210.453863,46.9626166 211.189904,46.9198926 211.865324,47.1335123 L212.197309,47.2616841 L249.340166,64.3205076 C251.436798,65.2834405 251.547147,68.143361 249.671213,69.3059767 L249.340166,69.4834139 L245.285714,71.3429412 L245.285714,89.6470588 C245.285714,91.2172802 244.006528,92.4901961 242.428571,92.4901961 C240.963326,92.4901961 239.755694,91.3926308 239.590651,89.9786287 L239.571429,89.6470588 L239.571429,73.9671569 L233.857143,76.5913725 L233.857143,106.776437 C233.857143,107.669768 233.435205,108.511154 232.717865,109.048271 C227.178761,113.195745 219.885645,115.235294 210.91904,115.235294 C201.944356,115.235294 194.696347,113.191883 189.25822,109.030168 C188.655436,108.568866 188.266546,107.891165 188.167736,107.151008 L188.142857,106.776437 L188.142857,76.5942157 L172.659834,69.4834139 C170.563202,68.5204811 170.452853,65.6605606 172.328787,64.4979448 L172.659834,64.3205076 L209.802691,47.2616841 Z M228.253691,79.1568627 L212.204487,86.5450566 C211.549082,86.8466363 210.808256,86.8897191 210.128445,86.674305 L209.794302,86.5450566 L193.745098,79.1597298 L193.746309,105.468712 L193.985727,105.633468 C197.992911,108.20494 203.231742,109.58666 209.753653,109.732247 L210.917908,109.745098 C217.990797,109.745098 223.666469,108.353048 228.004008,105.619213 L228.254902,105.454377 L228.253691,79.1568627 Z M211.393579,52.4901961 L181.196078,66.6092842 L211.393579,80.7254902 L241.588235,66.6092842 L211.393579,52.4901961 Z" id="🎨-Color" fill="#041F41"></path>
        <path d="M141.812,197 C142.34,197 142.724,196.568 142.724,196.088 L142.724,192.152 C142.724,191.672 142.34,191.24 141.812,191.24 L129.572,191.24 L129.572,164.312 C129.572,163.832 129.14,163.4 128.66,163.4 L124.244,163.4 C123.716,163.4 123.332,163.832 123.332,164.312 L123.332,196.088 C123.332,196.568 123.716,197 124.244,197 L141.812,197 Z M156.116,197.528 C159.716,197.528 162.452,196.136 164.372,194.504 C164.9,194.024 164.852,193.496 164.468,193.064 L162.596,190.568 C162.26,190.088 161.684,190.136 161.156,190.568 C160.148,191.384 158.612,192.2 156.404,192.2 C153.188,192.2 150.932,189.8 150.884,187.064 L165.092,187.064 C165.572,187.064 166.1,186.632 166.148,186.056 C166.196,185.72 166.244,184.952 166.244,184.616 C166.244,178.616 161.828,174.344 156.068,174.344 C149.492,174.344 144.884,179.672 144.884,185.912 C144.884,192.248 149.492,197.528 156.116,197.528 Z M160.196,183.128 L151.22,183.128 C151.508,180.92 153.236,179.288 155.924,179.288 C158.372,179.288 160.1,180.968 160.196,183.128 Z M176.708,197.528 C179.972,197.528 182.132,196.136 183.476,194.936 C183.908,196.232 185.012,197.192 186.788,197.192 C187.556,197.192 187.94,196.712 187.94,196.184 L187.94,183.992 C187.94,177.944 184.916,174.344 178.484,174.344 C175.46,174.344 172.484,175.256 172.004,175.448 C171.524,175.592 171.092,175.976 171.284,176.792 L171.764,179.288 C171.86,179.96 172.292,180.488 173.012,180.248 C174.308,179.864 176.18,179.432 178.148,179.432 C180.5,179.432 182.42,180.776 182.324,183.608 C182.324,183.608 180.308,182.984 178.052,182.984 C172.436,182.984 169.22,186.008 169.22,189.944 C169.22,194.696 172.292,197.528 176.708,197.528 Z M178.196,193.064 C176.132,193.064 174.98,191.816 174.98,189.944 C174.98,187.976 176.372,186.776 178.916,186.776 C180.692,186.776 182.18,187.448 182.18,187.448 L182.18,190.712 C181.892,191.528 180.164,193.064 178.196,193.064 Z M198.644,197 C199.364,197 199.892,196.76 199.892,195.944 L199.892,182.12 C200.276,181.352 201.716,179.816 204.116,179.816 C205.124,179.816 205.652,180.008 206.18,180.248 C206.708,180.488 207.236,180.296 207.476,179.768 L208.916,176.504 C209.54,175.064 207.38,174.344 204.74,174.344 C201.38,174.344 199.364,176.552 198.548,177.656 C198.26,175.976 197.108,174.632 195.044,174.632 C194.276,174.632 193.892,175.112 193.892,175.64 L193.892,195.944 C193.892,196.52 194.42,197 194.948,197 L198.644,197 Z M217.076,197 C218.132,197 218.468,196.76 218.468,195.944 L218.468,183.272 C218.996,181.736 220.388,179.816 223.268,179.816 C225.956,179.816 227.108,181.592 227.108,184.472 L227.108,195.944 C227.108,196.52 227.588,197 228.164,197 L232.052,197 C232.58,197 233.108,196.52 233.108,195.944 L233.108,184.472 C233.108,179.096 231.284,174.344 224.228,174.344 C220.388,174.344 218.324,176.168 217.076,177.512 C216.788,175.88 215.636,174.632 213.62,174.632 C212.852,174.632 212.468,175.112 212.468,175.64 L212.468,195.944 C212.468,196.52 212.996,197 213.524,197 L217.076,197 Z M241.94,171.032 C244.1,171.032 245.78,169.304 245.78,167.192 C245.78,165.08 244.1,163.4 241.94,163.4 C239.78,163.4 238.148,165.08 238.148,167.192 C238.148,169.304 239.78,171.032 241.94,171.032 Z M243.956,197 C244.484,197 245.012,196.52 245.012,195.944 L245.012,175.88 C245.012,175.256 244.484,174.824 243.956,174.824 L240.068,174.824 C239.54,174.824 239.012,175.256 239.012,175.88 L239.012,195.944 C239.012,196.52 239.54,197 240.068,197 L243.956,197 Z M255.764,197 C256.82,197 257.156,196.76 257.156,195.944 L257.156,183.272 C257.684,181.736 259.076,179.816 261.956,179.816 C264.644,179.816 265.796,181.592 265.796,184.472 L265.796,195.944 C265.796,196.52 266.276,197 266.852,197 L270.74,197 C271.268,197 271.796,196.52 271.796,195.944 L271.796,184.472 C271.796,179.096 269.972,174.344 262.916,174.344 C259.076,174.344 257.012,176.168 255.764,177.512 C255.476,175.88 254.324,174.632 252.308,174.632 C251.54,174.632 251.156,175.112 251.156,175.64 L251.156,195.944 C251.156,196.52 251.684,197 252.212,197 L255.764,197 Z M287.636,207.992 C293.684,207.992 298.676,204.392 298.676,197.24 L298.676,175.64 C298.676,175.112 298.292,174.632 297.524,174.632 C295.508,174.632 294.356,175.832 294.02,177.464 C292.772,176.12 290.42,174.344 286.964,174.344 C280.916,174.344 276.356,179.24 276.356,185.96 C276.356,192.44 280.724,197.528 287.348,197.528 C289.556,197.528 291.668,197 292.676,196.616 L292.676,197.24 C292.676,201.368 290.852,202.52 287.444,202.52 C285.14,202.52 282.98,201.32 282.164,200.84 C281.684,200.552 281.06,200.696 280.868,201.128 L279.428,204.248 C279.188,204.632 279.332,205.208 279.668,205.496 C280.724,206.312 283.988,207.992 287.636,207.992 Z M288.068,192.056 C284.42,192.056 282.548,189.08 282.548,185.96 C282.548,182.84 284.324,179.816 287.78,179.816 C290.66,179.816 292.196,181.64 292.676,182.888 L292.676,190.808 C292.676,190.808 290.852,192.056 288.068,192.056 Z M122.756,251.48 C127.028,251.48 131.156,249.992 134.42,246.824 C134.756,246.488 134.852,245.864 134.468,245.528 L131.492,242.456 C131.204,242.168 130.676,242.12 130.292,242.456 C128.276,244.088 125.828,245.192 122.948,245.192 C116.804,245.192 112.196,240.104 112.196,234.104 C112.196,228.056 116.756,222.92 122.9,222.92 C125.588,222.92 128.276,223.976 130.292,225.752 C130.676,226.136 131.156,226.136 131.492,225.752 L134.42,222.728 C134.804,222.344 134.804,221.768 134.372,221.384 C131.108,218.456 127.604,216.92 122.756,216.92 C113.156,216.92 105.428,224.648 105.428,234.248 C105.428,243.848 113.156,251.48 122.756,251.48 Z M144.26,251 C145.124,251 145.412,250.568 145.412,249.944 L145.412,237.704 C145.988,235.448 147.428,233.816 150.02,233.816 C152.66,233.816 154.052,235.688 154.052,238.76 L154.052,249.944 C154.052,250.52 154.532,251 155.108,251 L158.996,251 C159.524,251 160.052,250.52 160.052,249.944 L160.052,238.808 C160.052,233.24 158.132,228.344 151.076,228.344 C148.436,228.344 146.516,229.256 145.412,230.216 L145.412,218.456 C145.412,217.928 144.932,217.4 144.356,217.4 L140.468,217.4 C139.94,217.4 139.412,217.928 139.412,218.456 L139.412,249.944 C139.412,250.52 139.94,251 140.468,251 L144.26,251 Z M171.86,251.528 C175.124,251.528 177.284,250.136 178.628,248.936 C179.06,250.232 180.164,251.192 181.94,251.192 C182.708,251.192 183.092,250.712 183.092,250.184 L183.092,237.992 C183.092,231.944 180.068,228.344 173.636,228.344 C170.612,228.344 167.636,229.256 167.156,229.448 C166.676,229.592 166.244,229.976 166.436,230.792 L166.916,233.288 C167.012,233.96 167.444,234.488 168.164,234.248 C169.46,233.864 171.332,233.432 173.3,233.432 C175.652,233.432 177.572,234.776 177.476,237.608 C177.476,237.608 175.46,236.984 173.204,236.984 C167.588,236.984 164.372,240.008 164.372,243.944 C164.372,248.696 167.444,251.528 171.86,251.528 Z M173.348,247.064 C171.284,247.064 170.132,245.816 170.132,243.944 C170.132,241.976 171.524,240.776 174.068,240.776 C175.844,240.776 177.332,241.448 177.332,241.448 L177.332,244.712 C177.044,245.528 175.316,247.064 173.348,247.064 Z M193.988,251 C194.516,251 195.044,250.52 195.044,249.944 L195.044,237.272 C195.572,235.736 196.58,233.816 199.316,233.816 C202.148,233.816 202.964,235.592 202.964,238.472 L202.964,249.944 C202.964,250.52 203.396,251 204.02,251 L207.956,251 C208.484,251 209.012,250.52 209.012,249.944 L209.012,238.232 C209.012,237.224 208.916,236.12 208.916,236.12 C208.916,236.12 209.828,233.816 213.044,233.816 C215.828,233.816 216.884,235.592 216.884,238.472 L216.884,249.944 C216.884,250.52 217.364,251 217.94,251 L221.78,251 C222.404,251 222.884,250.52 222.884,249.944 L222.884,238.616 C222.884,232.856 221.204,228.344 214.1,228.344 C210.116,228.344 207.908,230.696 206.948,231.704 C205.124,229.496 203.54,228.344 200.324,228.344 C196.58,228.344 194.612,230.312 193.652,231.416 C193.316,229.832 192.164,228.632 190.196,228.632 C189.428,228.632 189.044,229.112 189.044,229.64 L189.044,249.944 C189.044,250.52 189.572,251 190.1,251 L193.988,251 Z M233.732,262.424 C234.26,262.424 234.788,261.896 234.788,261.368 L234.788,250.616 C235.796,251 237.908,251.528 240.116,251.528 C246.74,251.528 251.108,246.44 251.108,239.96 C251.108,233.24 246.548,228.344 240.5,228.344 C237.044,228.344 234.692,230.072 233.396,231.464 C233.06,229.832 231.956,228.632 229.94,228.632 C229.172,228.632 228.788,229.112 228.788,229.64 L228.788,261.368 C228.788,261.896 229.268,262.424 229.844,262.424 L233.732,262.424 Z M239.396,246.056 C236.612,246.056 234.788,244.808 234.788,244.808 L234.788,236.888 C235.268,235.64 236.804,233.816 239.684,233.816 C243.14,233.816 244.916,236.84 244.916,239.96 C244.916,243.08 243.044,246.056 239.396,246.056 Z M258.884,225.032 C261.044,225.032 262.724,223.304 262.724,221.192 C262.724,219.08 261.044,217.4 258.884,217.4 C256.724,217.4 255.092,219.08 255.092,221.192 C255.092,223.304 256.724,225.032 258.884,225.032 Z M260.9,251 C261.428,251 261.956,250.52 261.956,249.944 L261.956,229.88 C261.956,229.256 261.428,228.824 260.9,228.824 L257.012,228.824 C256.484,228.824 255.956,229.256 255.956,229.88 L255.956,249.944 C255.956,250.52 256.484,251 257.012,251 L260.9,251 Z M278.084,251.528 C284.372,251.528 289.46,246.2 289.46,239.864 C289.46,233.624 284.372,228.344 278.084,228.344 C271.844,228.344 266.756,233.624 266.756,239.864 C266.756,246.2 271.844,251.528 278.084,251.528 Z M278.084,246.056 C274.868,246.056 272.324,243.272 272.324,239.864 C272.324,236.504 274.868,233.816 278.084,233.816 C281.3,233.816 283.892,236.504 283.892,239.864 C283.892,243.272 281.3,246.056 278.084,246.056 Z M298.82,251 C299.876,251 300.212,250.76 300.212,249.944 L300.212,237.272 C300.74,235.736 302.132,233.816 305.012,233.816 C307.7,233.816 308.852,235.592 308.852,238.472 L308.852,249.944 C308.852,250.52 309.332,251 309.908,251 L313.796,251 C314.324,251 314.852,250.52 314.852,249.944 L314.852,238.472 C314.852,233.096 313.028,228.344 305.972,228.344 C302.132,228.344 300.068,230.168 298.82,231.512 C298.532,229.88 297.38,228.632 295.364,228.632 C294.596,228.632 294.212,229.112 294.212,229.64 L294.212,249.944 C294.212,250.52 294.74,251 295.268,251 L298.82,251 Z" id="LearningChampion" fill="#FFFFFF" fill-rule="nonzero"></path>
        <g id="Group" transform="translate(20.000000, 20.000000)" fill-rule="nonzero">
            <g id="Group-10">
                <rect id="Rectangle" fill="#B9BBC5" x="0" y="0" width="122" height="122"></rect>
                <path d="M54.41,67.8915166 C54.41,65.0115166 51.53,64.1215166 50,63.8015166 C49.442643,63.6924213 49.0306444,63.2186229 49,62.6515166 L49,58.9315166 C49.0390728,58.4228497 49.3595374,57.9788325 49.83,57.7815166 C49.83,57.7815166 54.41,56.3115166 54.41,53.6915166 L54.41,47.3515166 C54.41,32.0615166 63.82,30.3515166 70.41,30.0115166 C70.7284559,29.9655067 71.0513176,30.0586818 71.2962921,30.2672928 C71.5412665,30.4759039 71.6846879,30.779798 71.69,31.1015166 L72.01,36.5315166 C71.9744671,37.0761644 71.6277902,37.5513844 71.12,37.7515166 C66.64,38.9015166 64.12,41.0815166 64.12,47.3515166 L64.12,52.4115166 C64.12,57.4115166 58.68,60.6015166 58.68,60.6015166 L58.68,60.8515166 C60.34,61.5615166 64.12,63.9215166 64.12,68.5315166 L64.12,73.9115166 C64.12,80.1815166 66.68,82.3615166 71.12,83.5115166 C71.6246905,83.7101123 71.9707377,84.180581 72.01,84.7215166 L71.69,90.1615166 C71.6166374,90.8009378 71.0518902,91.2686191 70.41,91.2215166 C63.82,90.8415166 54.41,89.2215166 54.41,73.8815166 L54.41,67.8915166 Z" id="Path" fill="#041F41"></path>
            </g>
        </g>
        <g id="Group-2" transform="translate(340.000000, 81.000000) scale(-1, 1) translate(-340.000000, -81.000000) translate(279.000000, 20.000000)" fill-rule="nonzero">
            <rect id="Rectangle" fill="#605E63" x="0" y="0" width="122" height="122"></rect>
            <path d="M39.6200356,52.8236476 L44.6900356,49.5036476 L44.6900356,49.5036476 L76.2900356,28.5036476 C76.9480643,28.1450011 77.6912782,27.9721607 78.4400356,28.0036476 C81.2563729,28.358155 83.7098794,30.0951176 84.9800356,32.6336476 C87.1700356,36.4536476 86.8000356,40.6936476 84.1900356,42.1836476 L83.4700356,42.5136476 L49.4600356,59.3236476 L49.4600356,59.3236476 L45.4600356,61.2836476 L49.4600356,63.3336476 L65.7000356,71.4936476 L84.1300356,80.7536476 C86.7200356,82.2336476 87.0700356,86.4836476 84.8800356,90.2836476 C82.6900356,94.0836476 78.7900356,95.8736476 76.2300356,94.3836476 L59.7600356,83.3836476 L44.6900356,73.2536476 L44.6900356,73.2536476 L39.6200356,69.9136476 C36.7365969,68.0205609 35,64.8029948 35,61.3536476 C35,57.9043004 36.7365969,54.6867344 39.6200356,52.7936476" id="Path" fill="#B9BBC5"></path>
        </g>
    </g>
</svg>